PathFileType	4	(X/Y/Z)	Run_300 02
DataRate	CameraRate	NumFrames	NumMarkers	Units	OrigDataRate	OrigDataStartFrame	OrigNumFrames
100	100	4	42	mm	100	140	128
Frame#	Time	RASI			LPSI			RPSI			RTH1			RTH2			RTH3			LTH1			LTH2			LTH3			RTB1			RTB2			RTB3			LTB1			LTB2			LTB3			RCAL			RTOE			RMT5			LCAL			LTOE			LMT5			LACR			RACR			CLAV			C7			RUA1			RUA2			RUA3			RLEL			RMEL			LUA1			LUA2			LUA3			LLEL			LMEL			RFAsuperior			RFAradius			RFAulna			LFAsuperior			LFAradius			LFAulna			LASI			
		X1	Y1	Z1	X2	Y2	Z2	X3	Y3	Z3	X4	Y4	Z4	X5	Y5	Z5	X6	Y6	Z6	X7	Y7	Z7	X8	Y8	Z8	X9	Y9	Z9	X10	Y10	Z10	X11	Y11	Z11	X12	Y12	Z12	X13	Y13	Z13	X14	Y14	Z14	X15	Y15	Z15	X16	Y16	Z16	X17	Y17	Z17	X18	Y18	Z18	X19	Y19	Z19	X20	Y20	Z20	X21	Y21	Z21	X22	Y22	Z22	X23	Y23	Z23	X24	Y24	Z24	X25	Y25	Z25	X26	Y26	Z26	X27	Y27	Z27	X28	Y28	Z28	X29	Y29	Z29	X30	Y30	Z30	X31	Y31	Z31	X32	Y32	Z32	X33	Y33	Z33	X34	Y34	Z34	X35	Y35	Z35	X36	Y36	Z36	X37	Y37	Z37	X38	Y38	Z38	X39	Y39	Z39	X40	Y40	Z40	X41	Y41	Z41	X42	Y42	Z42	

136	1.87	1006.879464	1107.024903	-230.741073	861.240175	1164.018122	-417.523455	850.447768	1163.064433	-303.61489	944.0907	994.3386839999999	-170.430565	955.470883	839.340547	-201.425375	1058.398765	721.779466	-206.780754	927.134754	964.21668	-528.37891	801.80524	847.5151059999999	-480.102674	802.421364	704.678693	-474.179746	1146.579846	477.446554	-266.064715	1060.612435	437.667071	-201.138656	1102.1356	294.002116	-281.919997	752.898428	474.497476	-409.747552	621.8473279999999	429.175639	-452.447401	617.576049	304.816904	-396.29925	973.10363	166.106328	-287.756313	1215.566067	150.683942	-306.634026	1165.723732	118.321234	-214.70818	455.161954	283.043004	-371.49242	589.282395	90.92329100000001	-333.249704	519.09236	82.083163	-421.611697	1002.141995	1590.82113	-507.235864	977.366204	1576.934705	-189.087437	1047.56926	1542.149509	-310.54693	931.497787	1607.765397	-358.052621	837.3491299999999	1529.597169	-156.524866	849.588226	1467.057768	-106.190361	750.195183	1432.356809	-85.26144600000001	691.662913	1391.102947	-67.311116	699.866654	1358.954962	-151.899069	914.160763	1495.356442	-577.061506	947.102576	1420.866747	-599.1261009999999	878.712599	1356.591152	-635.289708	867.823046	1288.643296	-655.805307	838.403288	1265.842819	-570.435373	755.322154	1303.460446	-49.998946	899.319716	1207.99996	-106.600606	850.044032	1172.462888	-74.55113	942.44381	1262.007667	-631.2626299999999	1076.996093	1319.89323	-514.647731	1097.310599	1253.757624	-537.736612	1014.88839	1086.793489	-471.364119	
137	1.88	1006.765211	1109.337554	-230.547407	861.223672	1166.273781	-417.754648	850.388421	1164.568611	-303.57426	942.762356	994.300666	-170.782496	951.713937	839.198579	-201.449507	1051.694913	719.09003	-206.924751	928.684039	966.729906	-528.837214	803.2404790000001	850.548088	-480.285504	803.5437010000001	707.268784	-473.919427	1147.971814	476.709092	-267.603088	1065.709506	430.35355	-202.564139	1117.711145	290.559752	-284.451402	749.0374399999999	477.588488	-409.454699	617.217771	436.700668	-454.502574	607.291592	312.732052	-398.461469	999.273356	153.029021	-289.204378	1241.048047	157.448402	-315.578315	1197.078787	118.052554	-223.51746	445.920016	299.276208	-377.42683	566.9496820000001	99.239716	-335.386546	497.176135	93.24912500000001	-423.48125	1002.194773	1593.737216	-505.906416	976.919771	1579.405219	-188.473946	1047.127108	1544.358665	-309.725477	931.054048	1609.880783	-357.199111	836.318659	1533.286023	-157.539317	847.937902	1470.888613	-106.462602	748.18993	1436.491219	-86.376537	689.521807	1394.935181	-68.983329	698.5394659999999	1362.676963	-153.644559	914.288758	1499.377795	-576.67483	946.686744	1425.262547	-599.490241	877.9105970000001	1361.840971	-636.703877	867.2155299999999	1293.455823	-657.611023	836.66213	1270.447581	-572.411822	753.343022	1307.652262	-51.075781	898.6479440000001	1213.225952	-106.014062	849.1176830000001	1177.155961	-75.03580700000001	941.584346	1267.010508	-631.989295	1074.698677	1325.445108	-514.03401	1095.044284	1258.67903	-535.792501	1015.329626	1089.864137	-471.393239	
138	1.89	1006.383472	1110.123384	-230.316163	860.7775349999999	1167.32875	-417.753741	850.055802	1164.53772	-303.461344	941.879989	993.48323	-171.211019	948.09864	838.373271	-201.348612	1044.045081	715.52421	-207.179207	930.982559	967.686545	-528.823088	806.003476	851.018858	-480.851108	807.487404	707.19601	-473.822236	1147.815204	475.36667	-269.243832	1068.577578	423.684055	-204.841838	1130.142465	287.810961	-286.875588	747.243782	478.664064	-408.673351	614.737859	443.073372	-456.703889	597.6378560000001	320.347845	-400.061313	1021.822148	142.113417	-290.708597	1261.137936	165.449494	-324.037619	1223.603501	119.788237	-232.164678	436.091903	315.063527	-383.393831	545.258557	109.365979	-336.409711	477.557141	105.74665	-425.554063	1002.004703	1595.603354	-504.594681	976.697195	1580.748615	-187.611265	1046.763789	1545.575103	-308.852756	930.56911	1610.992002	-356.093184	835.543967	1535.390151	-158.30283	846.862766	1473.236285	-106.461277	746.802191	1438.979783	-87.105565	688.068957	1397.031289	-70.19705399999999	697.8979880000001	1364.60321	-154.822972	914.0632409999999	1502.172579	-576.168096	946.000875	1428.310482	-599.663755	876.974192	1365.6527	-637.897639	866.060446	1297.03574	-659.147342	834.113184	1274.092603	-573.988935	752.214195	1310.169704	-51.645215	898.82749	1216.886647	-105.173323	849.257298	1180.323986	-74.91827600000001	940.116119	1270.191982	-632.604879	1072.420335	1328.409898	-513.48472	1092.252752	1260.934928	-534.226959	1015.484428	1092.04063	-471.447643	
139	1.9	1005.785497	1109.57915	-230.139547	859.970093	1166.997599	-417.486693	849.510408	1163.15853	-303.412438	941.799042	992.3746180000001	-171.690962	944.454953	836.996566	-201.456613	1035.994523	711.234568	-207.594779	933.879597	966.94433	-528.290407	809.853123	849.006438	-481.874974	813.876426	704.594753	-473.986532	1146.61591	473.677173	-271.229725	1069.651005	417.853697	-207.785517	1139.298363	285.716108	-289.649364	747.244872	478.041206	-407.493829	614.1936040000001	448.553072	-458.93597	588.859111	327.954091	-401.243372	1039.692133	133.505063	-293.019123	1275.764923	173.194786	-331.350259	1243.976303	122.634721	-239.855852	426.053755	330.666132	-389.566351	525.148964	121.598374	-336.179554	460.899918	119.378579	-427.752106	1001.548696	1596.37984	-503.366097	976.776575	1580.853512	-186.603219	1046.476992	1545.702592	-307.998648	930.061722	1611.135084	-354.764294	835.151378	1535.956818	-158.363868	846.41457	1473.93769	-106.090559	746.0636500000001	1439.783704	-87.348349	687.3366559999999	1397.360692	-70.855296	697.916452	1364.721779	-155.342122	913.39008	1503.766033	-575.479482	944.9745380000001	1430.092794	-599.639187	875.820643	1368.06736	-638.712551	864.349427	1299.464298	-660.3451240000001	831.0321300000001	1276.785682	-575.216096	751.981727	1311.008778	-51.699193	899.847349	1218.938735	-104.13584	850.432167	1181.944805	-74.20020100000001	938.011697	1271.635877	-633.123027	1070.140629	1328.703305	-513.044889	1089.020502	1260.645587	-533.174188	1015.352067	1093.13015	-471.532991	
